{"accessors":[{"name":"console_console_auv-Mesh_positions","componentType":5126,"count":708,"min":[0.5137966871261597,1.126266598701477,-0.3498411178588867],"max":[1.1439236402511597,1.6053746938705444,0.33371567726135254],"type":"VEC3","bufferView":0,"byteOffset":0},{"name":"console_console_auv-Mesh_normals","componentType":5126,"count":708,"min":[-1.8594714403152466,-1.4677408933639526,-1.8594714403152466],"max":[2.0051984786987305,2.0789523124694824,1.8594714403152466],"type":"VEC3","bufferView":0,"byteOffset":39744},{"name":"console_console_auv-Mesh_texcoords","componentType":5126,"count":708,"min":[0.004034186247736216,0.003436267375946045],"max":[0.9882065653800964,0.9904764890670776],"type":"VEC2","bufferView":1,"byteOffset":0},{"name":"console_console_auv-Mesh_0_indices","componentType":5123,"count":708,"min":[0],"max":[707],"type":"SCALAR","bufferView":2,"byteOffset":0},{"name":"console_base_right_Cube1_auv-Mesh_positions","componentType":5126,"count":36,"min":[0.4471186101436615,1.129738688468933,-0.38146716356277466],"max":[0.9814069271087646,1.1543264389038086,-0.350820928812027],"type":"VEC3","bufferView":0,"byteOffset":8496},{"name":"console_base_right_Cube1_auv-Mesh_normals","componentType":5126,"count":36,"min":[-1.2002836465835571,-1.2002836465835571,-1.2002836465835571],"max":[1.2002836465835571,1.2002836465835571,1.2002836465835571],"type":"VEC3","bufferView":0,"byteOffset":48240},{"name":"console_base_right_Cube1_auv-Mesh_texcoords","componentType":5126,"count":36,"min":[0.17189331352710724,0.7521770596504211],"max":[0.1730959564447403,0.7621498107910156],"type":"VEC2","bufferView":1,"byteOffset":5664},{"name":"console_base_right_Cube1_auv-Mesh_0_indices","componentType":5123,"count":36,"min":[0],"max":[35],"type":"SCALAR","bufferView":2,"byteOffset":1416},{"name":"console_left_Cube1_auv-Mesh_positions","componentType":5126,"count":36,"min":[0.4471186101436615,1.129738688468933,0.331096351146698],"max":[0.9814069271087646,1.1543264389038086,0.3617425858974457],"type":"VEC3","bufferView":0,"byteOffset":8928},{"name":"console_left_Cube1_auv-Mesh_normals","componentType":5126,"count":36,"min":[-1.2002836465835571,-1.2002836465835571,-1.2002836465835571],"max":[1.2002836465835571,1.2002836465835571,1.2002836465835571],"type":"VEC3","bufferView":0,"byteOffset":48672},{"name":"console_left_Cube1_auv-Mesh_texcoords","componentType":5126,"count":36,"min":[0.26917368173599243,0.757266640663147],"max":[0.2700616419315338,0.7673149108886719],"type":"VEC2","bufferView":1,"byteOffset":5952},{"name":"console_left_Cube1_auv-Mesh_0_indices","componentType":5123,"count":36,"min":[0],"max":[35],"type":"SCALAR","bufferView":2,"byteOffset":1488},{"name":"misc1_Cube12_auv-Mesh_positions","componentType":5126,"count":36,"min":[-0.36044684052467346,0.06799628585577011,-0.3696581721305847],"max":[0.45866942405700684,0.2425595372915268,0.3479366898536682],"type":"VEC3","bufferView":0,"byteOffset":9360},{"name":"misc1_Cube12_auv-Mesh_normals","componentType":5126,"count":36,"min":[-1.2002836465835571,-1.2002836465835571,-1.2002836465835571],"max":[1.2002836465835571,1.2002836465835571,1.2002836465835571],"type":"VEC3","bufferView":0,"byteOffset":49104},{"name":"misc1_Cube12_auv-Mesh_texcoords","componentType":5126,"count":36,"min":[0.013458523899316788,0.18587976694107056],"max":[0.8398945331573486,0.9765228033065796],"type":"VEC2","bufferView":1,"byteOffset":6240},{"name":"misc1_Cube12_auv-Mesh_0_indices","componentType":5123,"count":36,"min":[0],"max":[35],"type":"SCALAR","bufferView":2,"byteOffset":1560},{"name":"2u_nas1_Cube12_auv-Mesh_positions","componentType":5126,"count":36,"min":[-0.36044684052467346,0.8612683415412903,-0.3696581721305847],"max":[0.45866942405700684,1.1272000074386597,0.3479366898536682],"type":"VEC3","bufferView":0,"byteOffset":9792},{"name":"2u_nas1_Cube12_auv-Mesh_normals","componentType":5126,"count":36,"min":[-1.2002836465835571,-1.2002836465835571,-1.2002836465835571],"max":[1.2002836465835571,1.2002836465835571,1.2002836465835571],"type":"VEC3","bufferView":0,"byteOffset":49536},{"name":"2u_nas1_Cube12_auv-Mesh_texcoords","componentType":5126,"count":36,"min":[0.011999286711215973,0.5295500755310059],"max":[0.8396415114402771,0.9619472026824951],"type":"VEC2","bufferView":1,"byteOffset":6528},{"name":"2u_nas1_Cube12_auv-Mesh_0_indices","componentType":5123,"count":36,"min":[0],"max":[35],"type":"SCALAR","bufferView":2,"byteOffset":1632},{"name":"misc2_Cube12_auv-Mesh_positions","componentType":5126,"count":36,"min":[-0.36044684052467346,2.1783480644226074,-0.3696581721305847],"max":[0.45866942405700684,2.360786199569702,0.3479366898536682],"type":"VEC3","bufferView":0,"byteOffset":10224},{"name":"misc2_Cube12_auv-Mesh_normals","componentType":5126,"count":36,"min":[-1.2002836465835571,-1.2002836465835571,-1.2002836465835571],"max":[1.2002836465835571,1.2002836465835571,1.2002836465835571],"type":"VEC3","bufferView":0,"byteOffset":49968},{"name":"misc2_Cube12_auv-Mesh_texcoords","componentType":5126,"count":36,"min":[0.010631212033331394,0.008234083652496338],"max":[0.5579881072044373,0.1659037470817566],"type":"VEC2","bufferView":1,"byteOffset":6816},{"name":"misc2_Cube12_auv-Mesh_0_indices","componentType":5123,"count":36,"min":[0],"max":[35],"type":"SCALAR","bufferView":2,"byteOffset":1704},{"name":"ups_Cube12_auv-Mesh_positions","componentType":5126,"count":36,"min":[-0.36044684052467346,1.885313868522644,-0.3696581721305847],"max":[0.45866942405700684,2.151245355606079,0.3479366898536682],"type":"VEC3","bufferView":0,"byteOffset":10656},{"name":"ups_Cube12_auv-Mesh_normals","componentType":5126,"count":36,"min":[-1.2002836465835571,-1.2002836465835571,-1.2002836465835571],"max":[1.2002836465835571,1.2002836465835571,1.2002836465835571],"type":"VEC3","bufferView":0,"byteOffset":50400},{"name":"ups_Cube12_auv-Mesh_texcoords","componentType":5126,"count":36,"min":[0.01056188065558672,0.00613170862197876],"max":[0.8384907245635986,0.19445008039474487],"type":"VEC2","bufferView":1,"byteOffset":7104},{"name":"ups_Cube12_auv-Mesh_0_indices","componentType":5123,"count":36,"min":[0],"max":[35],"type":"SCALAR","bufferView":2,"byteOffset":1776},{"name":"1u_server9_Cube12_auv-Mesh_positions","componentType":5126,"count":36,"min":[-0.36044684052467346,1.73868989944458,-0.3696581721305847],"max":[0.45866942405700684,1.8600019216537476,0.3479366898536682],"type":"VEC3","bufferView":0,"byteOffset":11088},{"name":"1u_server9_Cube12_auv-Mesh_normals","componentType":5126,"count":36,"min":[-1.2002836465835571,-1.2002836465835571,-1.2002836465835571],"max":[1.2002836465835571,1.2002836465835571,1.2002836465835571],"type":"VEC3","bufferView":0,"byteOffset":50832},{"name":"1u_server9_Cube12_auv-Mesh_texcoords","componentType":5126,"count":36,"min":[0.010880994610488415,0.15346407890319824],"max":[0.5491229295730591,0.2891227602958679],"type":"VEC2","bufferView":1,"byteOffset":7392},{"name":"1u_server9_Cube12_auv-Mesh_0_indices","componentType":5123,"count":36,"min":[0],"max":[35],"type":"SCALAR","bufferView":2,"byteOffset":1848},{"name":"1u_server8_Cube12_auv-Mesh_positions","componentType":5126,"count":36,"min":[-0.36044684052467346,1.5923840999603271,-0.3696581721305847],"max":[0.45866942405700684,1.7136961221694946,0.3479366898536682],"type":"VEC3","bufferView":0,"byteOffset":11520},{"name":"1u_server8_Cube12_auv-Mesh_normals","componentType":5126,"count":36,"min":[-1.2002836465835571,-1.2002836465835571,-1.2002836465835571],"max":[1.2002836465835571,1.2002836465835571,1.2002836465835571],"type":"VEC3","bufferView":0,"byteOffset":51264},{"name":"1u_server8_Cube12_auv-Mesh_texcoords","componentType":5126,"count":36,"min":[0.010569660924375057,0.26533186435699463],"max":[0.5517070889472961,0.7862725257873535],"type":"VEC2","bufferView":1,"byteOffset":7680},{"name":"1u_server8_Cube12_auv-Mesh_0_indices","componentType":5123,"count":36,"min":[0],"max":[35],"type":"SCALAR","bufferView":2,"byteOffset":1920},{"name":"1u_server7_Cube12_auv-Mesh_positions","componentType":5126,"count":36,"min":[-0.36044684052467346,1.4464994668960571,-0.3696581721305847],"max":[0.45866942405700684,1.5678116083145142,0.3479366898536682],"type":"VEC3","bufferView":0,"byteOffset":11952},{"name":"1u_server7_Cube12_auv-Mesh_normals","componentType":5126,"count":36,"min":[-1.2002836465835571,-1.2002836465835571,-1.2002836465835571],"max":[1.2002836465835571,1.2002836465835571,1.2002836465835571],"type":"VEC3","bufferView":0,"byteOffset":51696},{"name":"1u_server7_Cube12_auv-Mesh_texcoords","componentType":5126,"count":36,"min":[0.011717710644006729,0.32776427268981934],"max":[0.5520045757293701,0.6611936688423157],"type":"VEC2","bufferView":1,"byteOffset":7968},{"name":"1u_server7_Cube12_auv-Mesh_0_indices","componentType":5123,"count":36,"min":[0],"max":[35],"type":"SCALAR","bufferView":2,"byteOffset":1992},{"name":"1u_server6_Cube12_auv-Mesh_positions","componentType":5126,"count":36,"min":[-0.36044684052467346,1.2999581098556519,-0.3696581721305847],"max":[0.45866942405700684,1.4212701320648193,0.3479366898536682],"type":"VEC3","bufferView":0,"byteOffset":12384},{"name":"1u_server6_Cube12_auv-Mesh_normals","componentType":5126,"count":36,"min":[-1.2002836465835571,-1.2002836465835571,-1.2002836465835571],"max":[1.2002836465835571,1.2002836465835571,1.2002836465835571],"type":"VEC3","bufferView":0,"byteOffset":52128},{"name":"1u_server6_Cube12_auv-Mesh_texcoords","componentType":5126,"count":36,"min":[0.01139097474515438,0.276713490486145],"max":[0.5500845313072205,0.4406772255897522],"type":"VEC2","bufferView":1,"byteOffset":8256},{"name":"1u_server6_Cube12_auv-Mesh_0_indices","componentType":5123,"count":36,"min":[0],"max":[35],"type":"SCALAR","bufferView":2,"byteOffset":2064},{"name":"1u_server5_Cube12_auv-Mesh_positions","componentType":5126,"count":36,"min":[-0.36044684052467346,1.1540734767913818,-0.3696581721305847],"max":[0.45866942405700684,1.2753856182098389,0.3479366898536682],"type":"VEC3","bufferView":0,"byteOffset":12816},{"name":"1u_server5_Cube12_auv-Mesh_normals","componentType":5126,"count":36,"min":[-1.2002836465835571,-1.2002836465835571,-1.2002836465835571],"max":[1.2002836465835571,1.2002836465835571,1.2002836465835571],"type":"VEC3","bufferView":0,"byteOffset":52560},{"name":"1u_server5_Cube12_auv-Mesh_texcoords","componentType":5126,"count":36,"min":[0.011502459645271301,0.463243305683136],"max":[0.8406606912612915,0.6213650703430176],"type":"VEC2","bufferView":1,"byteOffset":8544},{"name":"1u_server5_Cube12_auv-Mesh_0_indices","componentType":5123,"count":36,"min":[0],"max":[35],"type":"SCALAR","bufferView":2,"byteOffset":2136},{"name":"1u_server4_Cube12_auv-Mesh_positions","componentType":5126,"count":36,"min":[-0.36044684052467346,0.7144280076026917,-0.3696581721305847],"max":[0.45866942405700684,0.8357401490211487,0.3479366898536682],"type":"VEC3","bufferView":0,"byteOffset":13248},{"name":"1u_server4_Cube12_auv-Mesh_normals","componentType":5126,"count":36,"min":[-1.2002836465835571,-1.2002836465835571,-1.2002836465835571],"max":[1.2002836465835571,1.2002836465835571,1.2002836465835571],"type":"VEC3","bufferView":0,"byteOffset":52992},{"name":"1u_server4_Cube12_auv-Mesh_texcoords","componentType":5126,"count":36,"min":[0.011617923155426979,0.40199708938598633],"max":[0.5501843094825745,0.6971403360366821],"type":"VEC2","bufferView":1,"byteOffset":8832},{"name":"1u_server4_Cube12_auv-Mesh_0_indices","componentType":5123,"count":36,"min":[0],"max":[35],"type":"SCALAR","bufferView":2,"byteOffset":2208},{"name":"1u_server3_Cube12_auv-Mesh_positions","componentType":5126,"count":36,"min":[-0.36044684052467346,0.5685434341430664,-0.3696581721305847],"max":[0.45866942405700684,0.6898555755615234,0.3479366898536682],"type":"VEC3","bufferView":0,"byteOffset":13680},{"name":"1u_server3_Cube12_auv-Mesh_normals","componentType":5126,"count":36,"min":[-1.2002836465835571,-1.2002836465835571,-1.2002836465835571],"max":[1.2002836465835571,1.2002836465835571,1.2002836465835571],"type":"VEC3","bufferView":0,"byteOffset":53424},{"name":"1u_server3_Cube12_auv-Mesh_texcoords","componentType":5126,"count":36,"min":[0.012313134968280792,0.6329723596572876],"max":[0.8436091542243958,0.7686310410499573],"type":"VEC2","bufferView":1,"byteOffset":9120},{"name":"1u_server3_Cube12_auv-Mesh_0_indices","componentType":5123,"count":36,"min":[0],"max":[35],"type":"SCALAR","bufferView":2,"byteOffset":2280},{"name":"1u_server2_Cube12_auv-Mesh_positions","componentType":5126,"count":36,"min":[-0.36044684052467346,0.42200204730033875,-0.3696581721305847],"max":[0.45866942405700684,0.5433141589164734,0.3479366898536682],"type":"VEC3","bufferView":0,"byteOffset":14112},{"name":"1u_server2_Cube12_auv-Mesh_normals","componentType":5126,"count":36,"min":[-1.2002836465835571,-1.2002836465835571,-1.2002836465835571],"max":[1.2002836465835571,1.2002836465835571,1.2002836465835571],"type":"VEC3","bufferView":0,"byteOffset":53856},{"name":"1u_server2_Cube12_auv-Mesh_texcoords","componentType":5126,"count":36,"min":[0.011988908052444458,0.7779961228370667],"max":[0.5581005215644836,0.9495919346809387],"type":"VEC2","bufferView":1,"byteOffset":9408},{"name":"1u_server2_Cube12_auv-Mesh_0_indices","componentType":5123,"count":36,"min":[0],"max":[35],"type":"SCALAR","bufferView":2,"byteOffset":2352},{"name":"1u_server1_Cube12_auv-Mesh_positions","componentType":5126,"count":36,"min":[-0.36044684052467346,0.2761175036430359,-0.3696581721305847],"max":[0.45866942405700684,0.39742961525917053,0.3479366898536682],"type":"VEC3","bufferView":0,"byteOffset":14544},{"name":"1u_server1_Cube12_auv-Mesh_normals","componentType":5126,"count":36,"min":[-1.2002836465835571,-1.2002836465835571,-1.2002836465835571],"max":[1.2002836465835571,1.2002836465835571,1.2002836465835571],"type":"VEC3","bufferView":0,"byteOffset":54288},{"name":"1u_server1_Cube12_auv-Mesh_texcoords","componentType":5126,"count":36,"min":[0.013123665004968643,0.3435906171798706],"max":[0.8396663069725037,0.8884512186050415],"type":"VEC2","bufferView":1,"byteOffset":9696},{"name":"1u_server1_Cube12_auv-Mesh_0_indices","componentType":5123,"count":36,"min":[0],"max":[35],"type":"SCALAR","bufferView":2,"byteOffset":2424},{"name":"rack_Cube1_auv-Mesh_positions","componentType":5126,"count":2064,"min":[-0.4810115098953247,0.0012350523611530662,-0.42459988594055176],"max":[0.5085222721099854,2.4793198108673096,0.4048753082752228],"type":"VEC3","bufferView":0,"byteOffset":14976},{"name":"rack_Cube1_auv-Mesh_normals","componentType":5126,"count":2064,"min":[-1.470041275024414,-1.8594714403152466,-2.0789523124694824],"max":[1.8118959665298462,1.470041275024414,2.0789523124694824],"type":"VEC3","bufferView":0,"byteOffset":54720},{"name":"rack_Cube1_auv-Mesh_texcoords","componentType":5126,"count":2064,"min":[0.002872534329071641,0.008292198181152344],"max":[0.9800183773040771,0.9927180409431458],"type":"VEC2","bufferView":1,"byteOffset":9984},{"name":"rack_Cube1_auv-Mesh_0_indices","componentType":5123,"count":2064,"min":[0],"max":[2063],"type":"SCALAR","bufferView":2,"byteOffset":2496}],"asset":{"generator":"obj2gltf","version":"2.0"},"buffers":[{"name":"ServerV2+console","byteLength":112608,"uri":"data:application/octet-stream;base64,"}],"bufferViews":[{"name":"bufferView_0","buffer":0,"byteLength":79488,"byteOffset":0,"byteStride":12,"target":34962},{"name":"bufferView_1","buffer":0,"byteLength":26496,"byteOffset":79488,"byteStride":8,"target":34962},{"name":"bufferView_2","buffer":0,"byteLength":6624,"byteOffset":105984,"target":34963}],"materials":[{"name":"console_auv","pbrMetallicRoughness":{"baseColorFactor":[0.5,0.5,0.5,1],"metallicFactor":0,"roughnessFactor":1},"emissiveFactor":[0,0,0],"alphaMode":"OPAQUE","doubleSided":false},{"name":"Cube1_auv","pbrMetallicRoughness":{"baseColorFactor":[0.5,0.5,0.5,1],"metallicFactor":0,"roughnessFactor":1},"emissiveFactor":[0,0,0],"alphaMode":"OPAQUE","doubleSided":false},{"name":"Cube12_auv","pbrMetallicRoughness":{"baseColorFactor":[0.5,0.5,0.5,1],"metallicFactor":0,"roughnessFactor":1},"emissiveFactor":[0,0,0],"alphaMode":"OPAQUE","doubleSided":false}],"meshes":[{"name":"console_console_auv-Mesh","primitives":[{"attributes":{"POSITION":0,"NORMAL":1,"TEXCOORD_0":2},"indices":3,"material":0,"mode":4}]},{"name":"console_base_right_Cube1_auv-Mesh","primitives":[{"attributes":{"POSITION":4,"NORMAL":5,"TEXCOORD_0":6},"indices":7,"material":1,"mode":4}]},{"name":"console_left_Cube1_auv-Mesh","primitives":[{"attributes":{"POSITION":8,"NORMAL":9,"TEXCOORD_0":10},"indices":11,"material":1,"mode":4}]},{"name":"misc1_Cube12_auv-Mesh","primitives":[{"attributes":{"POSITION":12,"NORMAL":13,"TEXCOORD_0":14},"indices":15,"material":2,"mode":4}]},{"name":"2u_nas1_Cube12_auv-Mesh","primitives":[{"attributes":{"POSITION":16,"NORMAL":17,"TEXCOORD_0":18},"indices":19,"material":2,"mode":4}]},{"name":"misc2_Cube12_auv-Mesh","primitives":[{"attributes":{"POSITION":20,"NORMAL":21,"TEXCOORD_0":22},"indices":23,"material":2,"mode":4}]},{"name":"ups_Cube12_auv-Mesh","primitives":[{"attributes":{"POSITION":24,"NORMAL":25,"TEXCOORD_0":26},"indices":27,"material":2,"mode":4}]},{"name":"1u_server9_Cube12_auv-Mesh","primitives":[{"attributes":{"POSITION":28,"NORMAL":29,"TEXCOORD_0":30},"indices":31,"material":2,"mode":4}]},{"name":"1u_server8_Cube12_auv-Mesh","primitives":[{"attributes":{"POSITION":32,"NORMAL":33,"TEXCOORD_0":34},"indices":35,"material":2,"mode":4}]},{"name":"1u_server7_Cube12_auv-Mesh","primitives":[{"attributes":{"POSITION":36,"NORMAL":37,"TEXCOORD_0":38},"indices":39,"material":2,"mode":4}]},{"name":"1u_server6_Cube12_auv-Mesh","primitives":[{"attributes":{"POSITION":40,"NORMAL":41,"TEXCOORD_0":42},"indices":43,"material":2,"mode":4}]},{"name":"1u_server5_Cube12_auv-Mesh","primitives":[{"attributes":{"POSITION":44,"NORMAL":45,"TEXCOORD_0":46},"indices":47,"material":2,"mode":4}]},{"name":"1u_server4_Cube12_auv-Mesh","primitives":[{"attributes":{"POSITION":48,"NORMAL":49,"TEXCOORD_0":50},"indices":51,"material":2,"mode":4}]},{"name":"1u_server3_Cube12_auv-Mesh","primitives":[{"attributes":{"POSITION":52,"NORMAL":53,"TEXCOORD_0":54},"indices":55,"material":2,"mode":4}]},{"name":"1u_server2_Cube12_auv-Mesh","primitives":[{"attributes":{"POSITION":56,"NORMAL":57,"TEXCOORD_0":58},"indices":59,"material":2,"mode":4}]},{"name":"1u_server1_Cube12_auv-Mesh","primitives":[{"attributes":{"POSITION":60,"NORMAL":61,"TEXCOORD_0":62},"indices":63,"material":2,"mode":4}]},{"name":"rack_Cube1_auv-Mesh","primitives":[{"attributes":{"POSITION":64,"NORMAL":65,"TEXCOORD_0":66},"indices":67,"material":1,"mode":4}]}],"nodes":[{"name":"console_console_auv","mesh":0},{"name":"console_base_right_Cube1_auv","mesh":1},{"name":"console_left_Cube1_auv","mesh":2},{"name":"misc1_Cube12_auv","mesh":3},{"name":"2u_nas1_Cube12_auv","mesh":4},{"name":"misc2_Cube12_auv","mesh":5},{"name":"ups_Cube12_auv","mesh":6},{"name":"1u_server9_Cube12_auv","mesh":7},{"name":"1u_server8_Cube12_auv","mesh":8},{"name":"1u_server7_Cube12_auv","mesh":9},{"name":"1u_server6_Cube12_auv","mesh":10},{"name":"1u_server5_Cube12_auv","mesh":11},{"name":"1u_server4_Cube12_auv","mesh":12},{"name":"1u_server3_Cube12_auv","mesh":13},{"name":"1u_server2_Cube12_auv","mesh":14},{"name":"1u_server1_Cube12_auv","mesh":15},{"name":"rack_Cube1_auv","mesh":16}],"scene":0,"scenes":[{"nodes":[0,1,2,3,4,5,6,7,8,9,10,11,12,13,14,15,16]}]}
